HIERARCHY
ROOT Hips
{
	OFFSET 0.00000 0.00000 0.00000
	CHANNELS 6 Xposition Yposition Zposition Zrotation Yrotation Xrotation 
	JOINT LHipJoint
	{
		OFFSET 0 0 0
		CHANNELS 3 Zrotation Yrotation Xrotation
		JOINT LeftUpLeg
		{
			OFFSET 1.75344 -1.53157 0.77399
			CHANNELS 3 Zrotation Yrotation Xrotation
			JOINT LeftLeg
			{
				OFFSET 2.25415 -6.19323 0.00000
				CHANNELS 3 Zrotation Yrotation Xrotation
				JOINT LeftFoot
				{
					OFFSET 2.30342 -6.32861 0.00000
					CHANNELS 3 Zrotation Yrotation Xrotation
					JOINT LeftToeBase
					{
						OFFSET 0.10958 -0.30108 1.49206
						CHANNELS 3 Zrotation Yrotation Xrotation
						End Site
						{
							OFFSET 0.00000 -0.00000 0.77783
						}
					}
				}
			}
		}
	}
	JOINT RHipJoint
	{
		OFFSET 0 0 0
		CHANNELS 3 Zrotation Yrotation Xrotation
		JOINT RightUpLeg
		{
			OFFSET -1.81912 -1.53156 0.77399
			CHANNELS 3 Zrotation Yrotation Xrotation
			JOINT RightLeg
			{
				OFFSET -2.22882 -6.12365 0.00000
				CHANNELS 3 Zrotation Yrotation Xrotation
				JOINT RightFoot
				{
					OFFSET -2.21943 -6.09785 0.00000
					CHANNELS 3 Zrotation Yrotation Xrotation
					JOINT RightToeBase
					{
						OFFSET -0.18931 -0.52012 1.59379
						CHANNELS 3 Zrotation Yrotation Xrotation
						End Site
						{
							OFFSET -0.00000 -0.00000 0.84686
						}
					}
				}
			}
		}
	}
	JOINT LowerBack
	{
		OFFSET 0 0 0
		CHANNELS 3 Zrotation Yrotation Xrotation
		JOINT Spine
		{
			OFFSET -0.00200 1.66634 -0.14248
			CHANNELS 3 Zrotation Yrotation Xrotation
			JOINT Spine1
			{
				OFFSET -0.00875 1.64542 0.09514
				CHANNELS 3 Zrotation Yrotation Xrotation
				JOINT Neck
				{
					OFFSET 0 0 0
					CHANNELS 3 Zrotation Yrotation Xrotation
					JOINT Neck1
					{
						OFFSET 0.02257 1.59605 0.00839
						CHANNELS 3 Zrotation Yrotation Xrotation
						JOINT Head
						{
							OFFSET -0.10214 1.57530 -0.23335
							CHANNELS 3 Zrotation Yrotation Xrotation
							End Site
							{
								OFFSET -0.03588 1.60717 -0.08062
							}
						}
					}
				}
				JOINT LeftShoulder
				{
					OFFSET 0 0 0
					CHANNELS 3 Zrotation Yrotation Xrotation
					JOINT LeftArm
					{
						OFFSET 2.54983 1.10186 0.40078
						CHANNELS 3 Zrotation Yrotation Xrotation
						JOINT LeftForeArm
						{
							OFFSET 4.28840 -0.00000 0.00000
							CHANNELS 3 Zrotation Yrotation Xrotation
							JOINT LeftHand
							{
								OFFSET 3.06552 -0.00000 -0.00000
								CHANNELS 3 Zrotation Yrotation Xrotation
								JOINT LeftFingerBase
								{
									OFFSET 0 0 0
									CHANNELS 3 Zrotation Yrotation Xrotation
									JOINT LeftHandIndex1
									{
										OFFSET 0.75304 -0.00000 0.00000
										CHANNELS 3 Zrotation Yrotation Xrotation
										End Site
										{
											OFFSET 0.60712 -0.00000 0.00000
										}
									}
								}
								JOINT LThumb
								{
									OFFSET 0 0 0
									CHANNELS 3 Zrotation Yrotation Xrotation
									End Site
									{
										OFFSET 0.61639 -0.00000 0.61639
									}
								}
							}
						}
					}
				}
				JOINT RightShoulder
				{
					OFFSET 0 0 0
					CHANNELS 3 Zrotation Yrotation Xrotation
					JOINT RightArm
					{
						OFFSET -2.60909 1.35448 0.21802
						CHANNELS 3 Zrotation Yrotation Xrotation
						JOINT RightForeArm
						{
							OFFSET -4.52172 -0.00000 -0.00000
							CHANNELS 3 Zrotation Yrotation Xrotation
							JOINT RightHand
							{
								OFFSET -2.89140 -0.00000 0.00000
								CHANNELS 3 Zrotation Yrotation Xrotation
								JOINT RightFingerBase
								{
									OFFSET 0 0 0
									CHANNELS 3 Zrotation Yrotation Xrotation
									JOINT RightHandIndex1
									{
										OFFSET -0.68054 -0.00000 0.00000
										CHANNELS 3 Zrotation Yrotation Xrotation
										End Site
										{
											OFFSET -0.54867 -0.00000 0.00000
										}
									}
								}
								JOINT RThumb
								{
									OFFSET 0 0 0
									CHANNELS 3 Zrotation Yrotation Xrotation
									End Site
									{
										OFFSET -0.55705 -0.00000 0.55705
									}
								}
							}
						}
					}
				}
			}
		}
	}
}
MOTION
Frames: 15
Frame Time: .0083333
8.3902 15.1414 42.3264 0 0 0 0 0 0 -21 0 0 0 0 0 0 0 0 0 0 0 0 0 0 21 0 0 0 0 0 0 0 0 0 0 0 0 0 0 0 0 0 0 0 0 0 0 -16 0 0 21 0 0 11 0 0 0 -8 0 0 0 0 0 0 0 0 0 0 0 0 0 0 0 0 0 0 0 0 8 0 0 0 0 0 0 0 0 0 0 0 0 0 0 0 0 0
8.3902 15.1414 42.3264 -179.4890 3.3890 178.5840 0.0000 0.0000 0.0000 -27.1416 -22.6454 1.9939 2.2391 9.3473 26.8878 1.4918 16.3743 -33.9261 2.8581 -10.4617 -30.4852 0.0000 0.0000 0.0000 24.4274 17.8901 -0.6364 -2.2095 -9.2894 26.7048 -0.8525 -16.6599 -30.2599 -0.0004 -0.1211 0.3328 -1.0677 1.3069 6.8985 -0.2658 1.6802 -3.8392 0.0867 0.8945 -7.9357 -6.2015 -1.7188 -8.5224 8.8990 -7.3087 30.2987 3.2345 -4.1958 11.8264 0.0000 0.0000 0.0000 -86.0008 12.5878 39.6007 20.4004 -31.1217 -5.7369 -0.0000 -0.0000 14.8500 2.5728 -36.1384 -1.5180 -7.1250 0.0000 -0.0000 -16.5057 -4.8863 18.6124 0.0000 0.0000 0.0000 84.7337 -11.9063 49.9109 -17.6857 27.7529 -4.4019 0.0000 0.0000 16.0571 -7.6630 -52.8603 6.1220 7.1250 -0.0000 -0.0000 68.3044 -74.0550 -52.2138
8.3846 15.1391 42.3282 -179.5820 3.6858 178.5030 0.0000 0.0000 0.0000 -27.2745 -22.4022 2.0648 2.2190 9.3082 26.7641 1.4745 16.4641 -33.9094 2.8686 -10.4792 -30.5430 0.0000 0.0000 0.0000 24.2715 17.8806 -0.7265 -2.2392 -9.3475 26.8884 -0.8892 -16.3611 -30.1923 -0.0001 -0.0512 0.1406 -1.1723 1.4193 6.9973 -0.2701 1.8167 -3.8163 0.1197 0.9658 -7.9738 -6.2342 -1.7189 -8.2445 8.8721 -7.3001 30.1751 3.2342 -4.2095 11.7183 0.0000 -0.0000 0.0000 -86.0317 12.5981 39.6079 20.3734 -31.0896 -5.7229 -0.0000 -0.0000 14.8803 2.7871 -36.1609 -1.6454 -7.1250 0.0000 -0.0000 -16.3946 -4.9293 18.4878 0.0000 -0.0000 0.0000 84.7297 -11.8992 49.8275 -17.6871 27.7547 -4.4026 0.0000 0.0000 16.0198 -7.6902 -52.7226 6.1326 7.1250 -0.0000 -0.0000 67.8281 -74.0222 -51.7432
8.3803 15.1396 42.3286 -179.7530 3.9498 178.5560 0.0000 0.0000 0.0000 -27.5105 -22.4682 2.0994 2.2049 9.2804 26.6763 1.4900 16.5759 -34.1008 2.8388 -10.4293 -30.3786 0.0000 0.0000 0.0000 24.0035 17.9609 -0.8960 -2.2563 -9.3807 26.9936 -0.9029 -16.1695 -30.0850 -0.0000 0.0126 -0.0346 -1.3797 1.5073 6.9424 -0.2884 1.9139 -3.8175 0.2047 1.0242 -7.9513 -6.1424 -1.7336 -8.5095 8.6959 -7.3164 30.4206 3.1467 -4.2216 11.8626 -0.0000 0.0000 0.0000 -86.0687 12.5057 39.6789 20.2821 -30.9807 -5.6759 -0.0000 -0.0000 14.6640 2.9113 -36.2000 -1.7204 -7.1250 0.0000 -0.0000 -16.3314 -4.9794 18.4236 -0.0000 0.0000 0.0000 84.6774 -11.8992 49.7235 -17.7340 27.8152 -4.4244 0.0000 0.0000 16.0990 -7.1254 -52.7820 5.6849 7.1250 -0.0000 -0.0000 68.3089 -73.8322 -51.9665
8.3782 15.1383 42.3280 -179.8470 3.9724 178.4910 0.0000 0.0000 0.0000 -27.6348 -22.3726 2.1636 2.1961 9.2632 26.6220 1.4791 16.5741 -34.0369 2.9265 -10.5751 -30.8598 0.0000 0.0000 0.0000 23.9107 17.9614 -0.8681 -2.2694 -9.4061 27.0741 -0.8710 -16.2773 -29.9829 -0.0012 0.2270 -0.6238 -1.5519 1.5150 7.0274 -0.2629 1.9061 -3.8202 0.3264 1.0302 -8.0108 -6.1904 -1.6827 -8.4254 8.7216 -7.2664 30.4565 3.1727 -4.2110 11.8569 -0.0000 -0.0000 0.0000 -86.1263 12.5010 39.6590 20.1477 -30.8198 -5.6068 -0.0000 -0.0000 15.0379 3.5259 -36.5425 -2.1011 -7.1250 0.0000 -0.0000 -16.0265 -5.3714 18.1518 -0.0000 -0.0000 0.0000 84.5959 -11.9636 49.6576 -17.7824 27.8776 -4.4470 0.0000 0.0000 16.2526 -5.9947 -53.2275 4.8082 7.1250 -0.0000 -0.0000 70.3265 -73.5508 -53.4947
8.3750 15.1406 42.3265 -179.7660 4.0095 178.5620 0.0000 0.0000 0.0000 -27.4936 -22.2636 2.0385 2.1917 9.2545 26.5948 1.4402 16.6353 -33.8701 2.9430 -10.6022 -30.9497 0.0000 0.0000 0.0000 23.9571 17.9697 -0.9730 -2.2748 -9.4164 27.1067 -0.8367 -16.3264 -29.8023 -0.0046 0.4361 -1.1983 -1.5374 1.5132 6.9838 -0.1827 1.9134 -3.8668 0.4020 1.0366 -8.0382 -6.3267 -1.5988 -8.3382 8.8350 -7.2050 30.5608 3.2492 -4.2023 11.8829 0.0000 0.0000 0.0000 -86.2304 12.5723 39.5226 20.0639 -30.7192 -5.5639 -0.0000 -0.0000 15.6108 4.4622 -36.7438 -2.6729 -7.1250 0.0000 -0.0000 -15.5487 -5.6671 17.6417 0.0000 0.0000 0.0000 84.4811 -12.0051 49.7549 -17.7992 27.8993 -4.4549 0.0000 0.0000 16.2608 -5.3788 -53.5877 4.3332 7.1250 -0.0000 -0.0000 71.7884 -73.4263 -54.7050
8.3703 15.1388 42.3245 -179.7120 3.6786 178.3850 0.0000 0.0000 0.0000 -27.5118 -22.2599 2.2155 2.1971 9.2652 26.6284 1.4371 16.5100 -33.7360 2.9130 -10.5529 -30.7866 0.0000 0.0000 0.0000 24.0767 17.7536 -0.7394 -2.2696 -9.4064 27.0750 -0.8573 -16.3703 -29.9879 -0.0005 0.1464 -0.4023 -1.4271 1.3919 7.1585 -0.1846 1.7551 -3.8125 0.3569 0.9511 -8.0742 -6.3643 -1.5183 -8.4194 8.9407 -7.1826 30.7853 3.2987 -4.1987 11.9932 -0.0000 -0.0000 0.0000 -86.2703 12.5722 39.3452 20.0216 -30.6683 -5.5423 -0.0000 -0.0000 15.8141 4.5813 -36.5649 -2.7330 -7.1250 0.0000 -0.0000 -15.4762 -5.5089 17.5145 -0.0000 -0.0000 0.0000 84.5077 -11.9647 49.7546 -17.7610 27.8501 -4.4370 0.0000 0.0000 16.3085 -5.3501 -53.6375 4.3128 7.1250 -0.0000 -0.0000 71.9640 -73.4291 -54.8718
8.3671 15.1366 42.3215 -179.7230 3.5303 178.2740 0.0000 0.0000 0.0000 -27.5882 -22.2308 2.3299 2.2037 9.2780 26.6690 1.4348 16.4855 -33.6998 2.9330 -10.5858 -30.8955 0.0000 0.0000 0.0000 24.1011 17.6524 -0.5556 -2.2600 -9.3878 27.0160 -0.8954 -16.3751 -30.2480 -0.0000 -0.0022 0.0061 -1.4853 1.3271 7.2331 -0.1518 1.6606 -3.7685 0.4365 0.9077 -8.0713 -6.3853 -1.4616 -8.4044 8.9954 -7.1452 30.8597 3.3286 -4.1870 12.0189 0.0000 -0.0000 0.0000 -86.4187 12.5418 39.1043 19.9274 -30.5548 -5.4944 -0.0000 -0.0000 16.1032 4.4887 -36.2897 -2.6602 -7.1250 0.0000 -0.0000 -15.5094 -5.2341 17.4871 0.0000 -0.0000 0.0000 84.5118 -11.9141 49.6374 -17.6994 27.7706 -4.4083 0.0000 0.0000 16.4789 -5.3778 -53.6714 4.3370 7.1250 -0.0000 -0.0000 72.0623 -73.4480 -54.9852
8.3641 15.1351 42.3184 -179.6740 3.4806 178.2700 0.0000 0.0000 0.0000 -27.5912 -22.3029 2.3967 2.2051 9.2809 26.6780 1.4131 16.6361 -33.7142 2.9761 -10.6563 -31.1292 0.0000 0.0000 0.0000 24.1481 17.6295 -0.5138 -2.2571 -9.3823 26.9988 -0.9243 -16.3731 -30.4375 -0.0000 -0.0156 0.0427 -1.4922 1.2810 7.1917 -0.0799 1.6036 -3.7555 0.5255 0.8819 -8.0343 -6.4399 -1.4213 -8.3576 8.9761 -7.1106 30.9534 3.3363 -4.1910 12.0440 -0.0000 -0.0000 0.0000 -86.5853 12.5166 38.8161 19.8617 -30.4754 -5.4610 -0.0000 -0.0000 16.1766 4.1740 -36.4974 -2.4855 -7.1250 0.0000 -0.0000 -15.6856 -5.3985 17.7422 -0.0000 -0.0000 0.0000 84.4414 -11.9109 49.6230 -17.6906 27.7592 -4.4042 0.0000 0.0000 16.5938 -5.4990 -53.5493 4.4280 7.1250 -0.0000 -0.0000 71.6087 -73.4596 -54.5764
8.3599 15.1369 42.3131 -179.6950 3.3725 178.4160 0.0000 0.0000 0.0000 -27.6315 -22.5775 2.3612 2.2038 9.2783 26.6698 1.4336 16.6317 -33.8283 2.9128 -10.5525 -30.7850 0.0000 0.0000 0.0000 24.0661 17.6415 -0.6231 -2.2516 -9.3717 26.9650 -0.9255 -16.3361 -30.4075 -0.0010 -0.2042 0.5610 -1.4922 1.2170 6.9669 -0.0771 1.5252 -3.7885 0.5440 0.8452 -7.9369 -6.3983 -1.3918 -8.3009 8.8519 -7.0982 31.1020 3.2839 -4.2099 12.0843 0.0000 -0.0000 0.0000 -86.6066 12.5730 38.6977 19.9313 -30.5595 -5.4964 -0.0000 -0.0000 15.9662 3.6283 -36.7836 -2.1744 -7.1250 0.0000 -0.0000 -15.9854 -5.6133 18.1629 0.0000 -0.0000 0.0000 84.3938 -11.9251 49.6982 -17.7063 27.7795 -4.4115 0.0000 0.0000 16.5516 -5.6200 -53.2611 4.5089 7.1250 -0.0000 -0.0000 70.6135 -73.4237 -53.6134
8.3563 15.1320 42.3104 -179.8180 3.3806 178.1910 0.0000 0.0000 0.0000 -27.9042 -22.5642 2.6427 2.2075 9.2856 26.6928 1.4686 16.5792 -33.9816 2.8422 -10.4351 -30.3975 0.0000 0.0000 0.0000 23.9796 17.5187 -0.3710 -2.2440 -9.3567 26.9178 -0.8948 -16.4163 -30.2865 -0.0000 -0.0255 0.0699 -1.6179 1.2015 7.1103 -0.0807 1.4839 -3.6948 0.6150 0.8287 -7.9223 -6.3354 -1.3811 -8.3256 8.6758 -7.0736 31.2265 3.2086 -4.2171 12.1283 -0.0000 -0.0000 0.0000 -86.5623 12.6245 38.9042 20.0625 -30.7176 -5.5633 -0.0000 -0.0000 15.6693 3.2262 -36.5315 -1.9218 -7.1250 0.0000 -0.0000 -16.1822 -5.3293 18.3318 -0.0000 -0.0000 0.0000 84.2863 -11.8619 49.8594 -17.7183 27.7950 -4.4171 0.0000 0.0000 16.3895 -5.7545 -53.1474 4.6102 7.1250 -0.0000 -0.0000 70.1803 -73.4399 -53.2329
8.3529 15.1364 42.3058 -179.7540 3.1871 178.3090 0.0000 0.0000 0.0000 -27.8021 -22.6824 2.5341 2.2112 9.2928 26.7156 1.4565 16.5457 -33.8808 2.9037 -10.5374 -30.7352 0.0000 0.0000 0.0000 24.0219 17.4987 -0.4377 -2.2364 -9.3420 26.8710 -0.8744 -16.6543 -30.4002 -0.0044 0.4288 -1.1782 -1.5590 1.0946 6.8913 -0.0316 1.3546 -3.6661 0.6564 0.7632 -7.7601 -6.3932 -1.2637 -8.0449 8.6615 -6.8736 31.0829 3.2432 -4.1428 11.9914 -0.0000 -0.0000 0.0000 -86.5132 12.5938 39.2132 20.1201 -30.7867 -5.5927 -0.0000 -0.0000 15.2779 2.8777 -36.1847 -1.6999 -7.1250 0.0000 -0.0000 -16.3483 -4.9613 18.4394 -0.0000 -0.0000 0.0000 84.1394 -11.8074 49.9995 -17.7735 27.8662 -4.4429 0.0000 0.0000 16.2847 -5.9394 -53.0812 4.7546 7.1250 -0.0000 -0.0000 69.8759 -73.4880 -53.0081
8.3499 15.1334 42.3058 -179.5850 3.1802 178.2040 0.0000 0.0000 0.0000 -27.6528 -22.5657 2.6023 2.2149 9.3001 26.7386 1.4339 16.6026 -33.8030 2.9774 -10.6584 -31.1363 0.0000 0.0000 0.0000 24.2640 17.5301 -0.2545 -2.2323 -9.3340 26.8458 -0.8962 -16.5840 -30.4706 -0.0045 0.4348 -1.1947 -1.4032 1.0738 6.9640 0.0325 1.3426 -3.6062 0.6376 0.7491 -7.7354 -5.7048 -5.2911 -8.3192 6.8131 -5.4946 32.0917 3.1478 -1.1041 12.3223 -0.0000 -0.0000 0.0000 -86.4738 12.5731 39.3480 20.0715 -30.7284 -5.5678 -0.0000 -0.0000 15.1968 3.0091 -36.2890 -1.7820 -7.1250 0.0000 -0.0000 -16.2842 -5.0745 18.3907 -0.0000 -0.0000 0.0000 84.0937 -11.8427 49.9211 -17.8472 27.9611 -4.4774 0.0000 0.0000 16.3189 -6.1074 -52.9297 4.8798 7.1250 -0.0000 -0.0000 69.3008 -73.5040 -52.4992
8.3470 15.1305 42.3059 -179.5490 3.1871 178.1750 0.0000 0.0000 0.0000 -27.5896 -22.4161 2.5436 2.2195 9.3091 26.7672 1.4204 16.5698 -33.6944 3.0427 -10.7638 -31.4873 0.0000 0.0000 0.0000 24.3255 17.5842 -0.1518 -2.2226 -9.3151 26.7861 -0.8873 -16.5617 -30.3888 -0.0007 0.1717 -0.4717 -1.3420 1.0773 6.8944 0.0208 1.3522 -3.5468 0.5919 0.7489 -7.6296 -5.7932 -5.2579 -8.0311 6.9839 -5.4790 31.9162 3.2275 -1.0936 12.1968 0.0000 0.0000 0.0000 -86.4326 12.5275 39.2815 20.0692 -30.7256 -5.5666 -0.0000 -0.0000 15.3569 2.9339 -36.5787 -1.7494 -7.1250 0.0000 -0.0000 -16.3366 -5.3441 18.5255 0.0000 0.0000 0.0000 84.1984 -11.8029 49.6794 -17.8338 27.9438 -4.4711 0.0000 0.0000 16.5130 -6.1196 -52.9185 4.8888 7.1250 -0.0000 -0.0000 69.2588 -73.5051 -52.4620
8.3453 15.1320 42.3055 -179.6010 3.2437 178.2110 0.0000 0.0000 0.0000 -27.6233 -22.3850 2.4714 2.2281 9.3258 26.8199 1.4509 16.4512 -33.7612 3.0100 -10.7112 -31.3121 0.0000 0.0000 0.0000 24.2331 17.5305 -0.2044 -2.2149 -9.3001 26.7387 -0.8760 -16.4925 -30.2409 -0.0004 0.1334 -0.3666 -1.4123 1.0825 7.0081 0.0161 1.3530 -3.6536 0.6224 0.7554 -7.8120 -5.8157 -5.2607 -7.8962 6.9719 -5.4486 32.0057 3.2378 -1.0722 12.2037 0.0000 0.0000 0.0000 -86.4378 12.7566 39.1965 20.2021 -30.8850 -5.6347 -0.0000 -0.0000 15.3830 2.5050 -36.5867 -1.4937 -7.1250 0.0000 -0.0000 -16.5601 -5.3082 18.7913 0.0000 0.0000 0.0000 84.2235 -11.9593 49.5594 -17.8027 27.9038 -4.4565 0.0000 0.0000 16.6766 -5.9174 -53.0196 4.7331 7.1250 -0.0000 -0.0000 69.6865 -73.4616 -52.8040
